{
  "accessors": [
    {
      "bufferView": 2,
      "componentType": 5126,
      "count": 229,
      "max": [
        0.060799997299909592,
        -0.11839999258518219,
        3.1185996532440186
      ],
      "min": [
        -0.060799997299909592,
        -0.19659999012947083,
        3.0209996700286865
      ],
      "type": "VEC3"
    },
    {
      "bufferView": 2,
      "byteOffset": 2748,
      "componentType": 5126,
      "count": 229,
      "max": [
        0.97106200456619263,
        0.79719448089599609,
        0.96565651893615723
      ],
      "min": [
        -0.97106200456619263,
        -0.9946557879447937,
        -0.97438967227935791
      ],
      "type": "VEC3"
    },
    {
      "bufferView": 3,
      "componentType": 5126,
      "count": 229,
      "max": [
        0.96522414684295654,
        0.96407032012939453,
        0.94340312480926514,
        1
      ],
      "min": [
        -0.96523082256317139,
        -0.97367912530899048,
        -0.94339931011199951,
        -1
      ],
      "type": "VEC4"
    },
    {
      "bufferView": 1,
      "componentType": 5126,
      "count": 229,
      "max": [
        0.84209001064300537,
        0.75655996799468994
      ],
      "min": [
        0.3546299934387207,
        0.050689995288848877
      ],
      "type": "VEC2"
    },
    {
      "bufferView": 0,
      "componentType": 5125,
      "count": 231,
      "max": [
        228
      ],
      "min": [
        0
      ],
      "type": "SCALAR"
    },
    {
      "bufferView": 2,
      "byteOffset": 5496,
      "componentType": 5126,
      "count": 1874,
      "max": [
        1.341999888420105,
        0.16899998486042023,
        3.3995997905731201
      ],
      "min": [
        -1.341999888420105,
        -0.49340000748634338,
        2.0763998031616211
      ],
      "type": "VEC3"
    },
    {
      "bufferView": 2,
      "byteOffset": 27984,
      "componentType": 5126,
      "count": 1874,
      "max": [
        0.998879075050354,
        0.99941432476043701,
        0.99933820962905884
      ],
      "min": [
        -0.99860876798629761,
        -0.99945354461669922,
        -0.99880522489547729
      ],
      "type": "VEC3"
    },
    {
      "bufferView": 3,
      "byteOffset": 3664,
      "componentType": 5126,
      "count": 1874,
      "max": [
        0.99999302625656128,
        0.99850964546203613,
        0.99966555833816528,
        1
      ],
      "min": [
        -0.99948304891586304,
        -0.98944151401519775,
        -0.99945360422134399,
        -1
      ],
      "type": "VEC4"
    },
    {
      "bufferView": 1,
      "byteOffset": 1832,
      "componentType": 5126,
      "count": 1874,
      "max": [
        0.99251002073287964,
        0.99645000696182251
      ],
      "min": [
        0.01193000003695488,
        0.0054500102996826172
      ],
      "type": "VEC2"
    },
    {
      "bufferView": 0,
      "byteOffset": 924,
      "componentType": 5125,
      "count": 4293,
      "max": [
        1873
      ],
      "min": [
        0
      ],
      "type": "SCALAR"
    },
    {
      "bufferView": 2,
      "byteOffset": 50472,
      "componentType": 5126,
      "count": 18,
      "max": [
        0.031599998474121094,
        0.18019998073577881,
        1.8711998462677002
      ],
      "min": [
        -0.038199998438358307,
        -0.01679999940097332,
        1.650999903678894
      ],
      "type": "VEC3"
    },
    {
      "bufferView": 2,
      "byteOffset": 50688,
      "componentType": 5126,
      "count": 18,
      "max": [
        1,
        0.45507678389549255,
        0.4252912700176239
      ],
      "min": [
        0.88372361660003662,
        0,
        -0.10925994068384171
      ],
      "type": "VEC3"
    },
    {
      "bufferView": 3,
      "byteOffset": 33648,
      "componentType": 5126,
      "count": 18,
      "max": [
        0,
        0.99970459938049316,
        0.89476138353347778,
        1
      ],
      "min": [
        -0.28973382711410522,
        0.33978894352912903,
        -0.069134995341300964,
        1
      ],
      "type": "VEC4"
    },
    {
      "bufferView": 1,
      "byteOffset": 16824,
      "componentType": 5126,
      "count": 18,
      "max": [
        0.57846999168395996,
        0.93101000785827637
      ],
      "min": [
        0.51612001657485962,
        0.88621002435684204
      ],
      "type": "VEC2"
    },
    {
      "bufferView": 0,
      "byteOffset": 18096,
      "componentType": 5125,
      "count": 18,
      "max": [
        17
      ],
      "min": [
        0
      ],
      "type": "SCALAR"
    },
    {
      "bufferView": 2,
      "byteOffset": 50904,
      "componentType": 5126,
      "count": 18,
      "max": [
        0.038199998438358307,
        0.18019998073577881,
        1.8711998462677002
      ],
      "min": [
        -0.031599998474121094,
        -0.01679999940097332,
        1.650999903678894
      ],
      "type": "VEC3"
    },
    {
      "bufferView": 2,
      "byteOffset": 51120,
      "componentType": 5126,
      "count": 18,
      "max": [
        -0.88372361660003662,
        0.45507678389549255,
        0.4252912700176239
      ],
      "min": [
        -1,
        0,
        -0.10925994068384171
      ],
      "type": "VEC3"
    },
    {
      "bufferView": 3,
      "byteOffset": 33936,
      "componentType": 5126,
      "count": 18,
      "max": [
        0.41245606541633606,
        0.99849474430084229,
        0.54885333776473999,
        -1
      ],
      "min": [
        0,
        0.76885193586349487,
        -0.40116614103317261,
        -1
      ],
      "type": "VEC4"
    },
    {
      "bufferView": 1,
      "byteOffset": 16968,
      "componentType": 5126,
      "count": 18,
      "max": [
        0.58197999000549316,
        0.94717997312545776
      ],
      "min": [
        0.5338900089263916,
        0.88647001981735229
      ],
      "type": "VEC2"
    },
    {
      "bufferView": 0,
      "byteOffset": 18168,
      "componentType": 5125,
      "count": 18,
      "max": [
        17
      ],
      "min": [
        0
      ],
      "type": "SCALAR"
    },
    {
      "bufferView": 2,
      "byteOffset": 51336,
      "componentType": 5126,
      "count": 6827,
      "max": [
        1.1015999317169189,
        1.0873998403549194,
        3.2493996620178223
      ],
      "min": [
        -1.1015999317169189,
        -0.46699997782707214,
        -0.0045999996364116669
      ],
      "type": "VEC3"
    },
    {
      "bufferView": 2,
      "byteOffset": 133260,
      "componentType": 5126,
      "count": 6827,
      "max": [
        0.99805516004562378,
        0.99448215961456299,
        0.99864935874938965
      ],
      "min": [
        -1,
        -0.99952244758605957,
        -0.9992067813873291
      ],
      "type": "VEC3"
    },
    {
      "bufferView": 3,
      "byteOffset": 34224,
      "componentType": 5126,
      "count": 6827,
      "max": [
        0.99999988079071045,
        0.99637299776077271,
        0.99208498001098633,
        1
      ],
      "min": [
        -0.99972474575042725,
        -0.99999964237213135,
        -0.99900311231613159,
        -1
      ],
      "type": "VEC4"
    },
    {
      "bufferView": 1,
      "byteOffset": 17112,
      "componentType": 5126,
      "count": 6827,
      "max": [
        0.99519002437591553,
        0.99594998359680176
      ],
      "min": [
        0.003490000031888485,
        0.0003299713134765625
      ],
      "type": "VEC2"
    },
    {
      "bufferView": 0,
      "byteOffset": 18240,
      "componentType": 5125,
      "count": 6834,
      "max": [
        6826
      ],
      "min": [
        0
      ],
      "type": "SCALAR"
    },
    {
      "bufferView": 2,
      "byteOffset": 215184,
      "componentType": 5126,
      "count": 584,
      "max": [
        1.2155998945236206,
        0.062000002712011337,
        2.3761997222900391
      ],
      "min": [
        -1.2155998945236206,
        -0.093599990010261536,
        2.1863996982574463
      ],
      "type": "VEC3"
    },
    {
      "bufferView": 2,
      "byteOffset": 222192,
      "componentType": 5126,
      "count": 584,
      "max": [
        0.99627071619033813,
        0.99663984775543213,
        0.99792420864105225
      ],
      "min": [
        -0.99627071619033813,
        -0.99666619300842285,
        -0.99980312585830688
      ],
      "type": "VEC3"
    },
    {
      "bufferView": 3,
      "byteOffset": 143456,
      "componentType": 5126,
      "count": 584,
      "max": [
        0.99980014562606812,
        0.98548048734664917,
        0.94663172960281372,
        1
      ],
      "min": [
        -0.99980014562606812,
        -0.99681127071380615,
        -0.99605017900466919,
        -1
      ],
      "type": "VEC4"
    },
    {
      "bufferView": 1,
      "byteOffset": 71728,
      "componentType": 5126,
      "count": 584,
      "max": [
        0.91127002239227295,
        0.99768000841140747
      ],
      "min": [
        0.27952000498771667,
        0.24994999170303345
      ],
      "type": "VEC2"
    },
    {
      "bufferView": 0,
      "byteOffset": 45576,
      "componentType": 5125,
      "count": 1188,
      "max": [
        583
      ],
      "min": [
        0
      ],
      "type": "SCALAR"
    },
    {
      "bufferView": 4,
      "componentType": 5126,
      "count": 1,
      "max": [
        1,
        0,
        0,
        0,
        0,
        1,
        0,
        0,
        0,
        0,
        1,
        0,
        0,
        0,
        0,
        1
      ],
      "min": [
        1,
        0,
        0,
        0,
        0,
        1,
        0,
        0,
        0,
        0,
        1,
        0,
        0,
        0,
        0,
        1
      ],
      "type": "MAT4"
    }
  ],
  "asset": {
    "extras": {
      "author": "asifsaj (https://sketchfab.com/asifsaj)",
      "license": "CC-BY-4.0 (http://creativecommons.org/licenses/by/4.0/)",
      "source": "https://sketchfab.com/models/22fc6742f1f344f187d28d4cc0cb1842",
      "title": "Fully Hollowfied Ichigo"
    },
    "generator": "Sketchfab-3.18.5",
    "version": "2.0"
  },
  "bufferViews": [
    {
      "buffer": 0,
      "byteLength": 50328,
      "byteOffset": 0,
      "name": "floatBufferViews",
      "target": 34963
    },
    {
      "buffer": 0,
      "byteLength": 76400,
      "byteOffset": 50328,
      "byteStride": 8,
      "name": "floatBufferViews",
      "target": 34962
    },
    {
      "buffer": 0,
      "byteLength": 229200,
      "byteOffset": 126728,
      "byteStride": 12,
      "name": "floatBufferViews",
      "target": 34962
    },
    {
      "buffer": 0,
      "byteLength": 152800,
      "byteOffset": 355928,
      "byteStride": 16,
      "name": "floatBufferViews",
      "target": 34962
    },
    {
      "buffer": 0,
      "byteLength": 64,
      "byteOffset": 508728,
      "byteStride": 64,
      "name": "floatBufferViews"
    }
  ],
  "buffers": [
    {
      "byteLength": 508792,
      "uri": "scene.bin"
    }
  ],
  "images": [
    {
      "uri": "textures/A_new.001_baseColor.png"
    },
    {
      "uri": "textures/A_new_baseColor.png"
    },
    {
      "uri": "textures/Material0_baseColor.png"
    },
    {
      "uri": "textures/Material1_baseColor.png"
    },
    {
      "uri": "textures/Fist_baseColor.png"
    },
    {
      "uri": "textures/Mouth_baseColor.png"
    }
  ],
  "materials": [
    {
      "doubleSided": true,
      "emissiveFactor": [
        0,
        0,
        0
      ],
      "name": "Mouth",
      "pbrMetallicRoughness": {
        "baseColorFactor": [
          1,
          1,
          1,
          1
        ],
        "baseColorTexture": {
          "index": 5,
          "texCoord": 0
        },
        "metallicFactor": 0,
        "roughnessFactor": 1
      }
    },
    {
      "doubleSided": true,
      "emissiveFactor": [
        0,
        0,
        0
      ],
      "name": "Material1",
      "pbrMetallicRoughness": {
        "baseColorFactor": [
          1,
          1,
          1,
          1
        ],
        "baseColorTexture": {
          "index": 3,
          "texCoord": 0
        },
        "metallicFactor": 0,
        "roughnessFactor": 1
      }
    },
    {
      "doubleSided": true,
      "emissiveFactor": [
        0,
        0,
        0
      ],
      "name": "A_new.001",
      "pbrMetallicRoughness": {
        "baseColorFactor": [
          1,
          1,
          1,
          1
        ],
        "baseColorTexture": {
          "index": 0,
          "texCoord": 0
        },
        "metallicFactor": 0,
        "roughnessFactor": 1
      }
    },
    {
      "doubleSided": true,
      "emissiveFactor": [
        0,
        0,
        0
      ],
      "name": "A_new",
      "pbrMetallicRoughness": {
        "baseColorFactor": [
          1,
          1,
          1,
          1
        ],
        "baseColorTexture": {
          "index": 1,
          "texCoord": 0
        },
        "metallicFactor": 0,
        "roughnessFactor": 1
      }
    },
    {
      "doubleSided": true,
      "emissiveFactor": [
        0,
        0,
        0
      ],
      "name": "Material0",
      "pbrMetallicRoughness": {
        "baseColorFactor": [
          1,
          1,
          1,
          1
        ],
        "baseColorTexture": {
          "index": 2,
          "texCoord": 0
        },
        "metallicFactor": 0,
        "roughnessFactor": 1
      }
    },
    {
      "doubleSided": true,
      "emissiveFactor": [
        0,
        0,
        0
      ],
      "name": "Fist",
      "pbrMetallicRoughness": {
        "baseColorFactor": [
          1,
          1,
          1,
          1
        ],
        "baseColorTexture": {
          "index": 4,
          "texCoord": 0
        },
        "metallicFactor": 0,
        "roughnessFactor": 1
      }
    }
  ],
  "meshes": [
    {
      "name": "0",
      "primitives": [
        {
          "attributes": {
            "NORMAL": 1,
            "POSITION": 0,
            "TANGENT": 2,
            "TEXCOORD_0": 3
          },
          "indices": 4,
          "material": 0,
          "mode": 4
        }
      ]
    },
    {
      "name": "1",
      "primitives": [
        {
          "attributes": {
            "NORMAL": 6,
            "POSITION": 5,
            "TANGENT": 7,
            "TEXCOORD_0": 8
          },
          "indices": 9,
          "material": 1,
          "mode": 4
        }
      ]
    },
    {
      "name": "2",
      "primitives": [
        {
          "attributes": {
            "NORMAL": 11,
            "POSITION": 10,
            "TANGENT": 12,
            "TEXCOORD_0": 13
          },
          "indices": 14,
          "material": 2,
          "mode": 4
        }
      ]
    },
    {
      "name": "3",
      "primitives": [
        {
          "attributes": {
            "NORMAL": 16,
            "POSITION": 15,
            "TANGENT": 17,
            "TEXCOORD_0": 18
          },
          "indices": 19,
          "material": 3,
          "mode": 4
        }
      ]
    },
    {
      "name": "4",
      "primitives": [
        {
          "attributes": {
            "NORMAL": 21,
            "POSITION": 20,
            "TANGENT": 22,
            "TEXCOORD_0": 23
          },
          "indices": 24,
          "material": 4,
          "mode": 4
        }
      ]
    },
    {
      "name": "5",
      "primitives": [
        {
          "attributes": {
            "NORMAL": 26,
            "POSITION": 25,
            "TANGENT": 27,
            "TEXCOORD_0": 28
          },
          "indices": 29,
          "material": 5,
          "mode": 4
        }
      ]
    }
  ],
  "nodes": [
    {
      "children": [
        1
      ],
      "name": "RootNode (gltf orientation matrix)",
      "rotation": [
        -0.70710678118654746,
        -0,
        -0,
        0.70710678118654757
      ]
    },
    {
      "children": [
        2
      ],
      "matrix": [
        1,
        0,
        0,
        0,
        0,
        0,
        1,
        0,
        0,
        -1,
        0,
        0,
        0,
        14004.1083984375,
        -19943.71875,
        1
      ],
      "name": "RootNode (model correction matrix)"
    },
    {
      "children": [
        3
      ],
      "matrix": [
        1,
        0,
        0,
        0,
        0,
        0,
        1,
        0,
        0,
        -1,
        0,
        0,
        0,
        0,
        0,
        1
      ],
      "name": "HollofiedIchigo.fbx"
    },
    {
      "children": [
        4
      ],
      "name": "RootNode"
    },
    {
      "children": [
        5
      ],
      "matrix": [
        100,
        0,
        0,
        0,
        0,
        -1.6292067939183141e-05,
        -99.999999999998678,
        0,
        0,
        99.999999999998678,
        -1.6292067939183141e-05,
        0,
        0,
        0,
        0,
        1
      ],
      "name": "Armature"
    },
    {
      "children": [
        6,
        7
      ],
      "name": ""
    },
    {
      "name": "_rootJoint"
    },
    {
      "children": [
        8,
        9,
        10,
        11,
        12,
        13
      ],
      "matrix": [
        100,
        0,
        0,
        0,
        0,
        6.1232339957367661e-15,
        -100,
        0,
        0,
        100,
        6.1232339957367661e-15,
        0,
        0,
        -8.106231689453125e-06,
        3.7252902984619141e-08,
        1
      ],
      "name": ""
    },
    {
      "mesh": 0,
      "name": "0"
    },
    {
      "mesh": 1,
      "name": "1"
    },
    {
      "mesh": 2,
      "name": "2"
    },
    {
      "mesh": 3,
      "name": "3"
    },
    {
      "mesh": 4,
      "name": "4"
    },
    {
      "mesh": 5,
      "name": "5"
    }
  ],
  "samplers": [
    {
      "magFilter": 9729,
      "minFilter": 9987,
      "wrapS": 10497,
      "wrapT": 10497
    }
  ],
  "scene": 0,
  "scenes": [
    {
      "name": "OSG_Scene",
      "nodes": [
        0
      ]
    }
  ],
  "skins": [
    {
      "inverseBindMatrices": 30,
      "joints": [
        6
      ],
      "skeleton": 6
    }
  ],
  "textures": [
    {
      "sampler": 0,
      "source": 0
    },
    {
      "sampler": 0,
      "source": 1
    },
    {
      "sampler": 0,
      "source": 2
    },
    {
      "sampler": 0,
      "source": 3
    },
    {
      "sampler": 0,
      "source": 4
    },
    {
      "sampler": 0,
      "source": 5
    }
  ]
}

